<?xml version="1.0" encoding="utf-8"?>
<!-- Generator: Adobe Illustrator 24.3.0, SVG Export Plug-In . SVG Version: 6.00 Build 0)  -->
<svg version="1.1" id="Layer_1" xmlns="http://www.w3.org/2000/svg" xmlns:xlink="http://www.w3.org/1999/xlink" x="0px" y="0px"
	 viewBox="0 0 1280 352.95" style="enable-background:new 0 0 1280 352.95;" xml:space="preserve">
<style type="text/css">
	.st0{fill:#D8D8D8;}
</style>
<g>
	<rect y="189" class="st0" width="76" height="76"/>
</g>
<g>
	<rect x="1157" y="75" transform="matrix(0.5973 -0.802 0.802 0.5973 390.5497 1003.8724)" class="st0" width="76" height="76"/>
</g>
<g>
	<rect x="994" y="182" class="st0" width="76" height="76"/>
</g>
<g>
	<rect x="825" y="96" transform="matrix(0.9619 -0.2734 0.2734 0.9619 -3.7528 241.073)" class="st0" width="76" height="76"/>
</g>
<g>
	<rect x="659" y="24" class="st0" width="76" height="76"/>
</g>
<g>
	<rect x="482" y="172" class="st0" width="76" height="76"/>
</g>
<g>
	<rect x="208" y="113" transform="matrix(0.9619 -0.2734 0.2734 0.9619 -31.913 73.0169)" class="st0" width="76" height="76"/>
</g>
<g>
	<rect x="406" y="42" transform="matrix(0.1181 -0.993 0.993 0.1181 312.1198 511.4436)" class="st0" width="76" height="76"/>
</g>
<g>
	<rect x="81" y="89" transform="matrix(0.9126 -0.4088 0.4088 0.9126 -37.0232 52.8052)" class="st0" width="48" height="48"/>
</g>
<g>
	<rect x="1070" y="100" class="st0" width="48" height="48"/>
</g>
<g>
	<rect x="284" class="st0" width="48" height="48"/>
</g>
<g>
	<rect x="929" y="24" transform="matrix(0.7868 -0.6171 0.6171 0.7868 173.5123 598.3744)" class="st0" width="48" height="48"/>
</g>
<g>
	<rect x="711" y="186" class="st0" width="48" height="48"/>
</g>
<g>
	<rect x="542" y="94" class="st0" width="48" height="48"/>
</g>
<g>
	<rect x="364" y="186" class="st0" width="48" height="48"/>
</g>
<g>
	<polyline class="st0" points="1280,352.95 1280,216 1233,216 1233,254 1157,254 1157,216 901,216 901,265 825,265 825,216 678,216 
		678,234 630,234 630,216 191,216 191,251 143,251 143,216 0,216 0,350.63 	"/>
</g>
</svg>
