<?xml version="1.0" encoding="utf-8"?>
<!-- Generator: Adobe Illustrator 25.0.0, SVG Export Plug-In . SVG Version: 6.00 Build 0)  -->
<svg version="1.1" id="Layer_1" xmlns="http://www.w3.org/2000/svg" xmlns:xlink="http://www.w3.org/1999/xlink" x="0px" y="0px"
	 viewBox="0 0 452.2 540.15" style="enable-background:new 0 0 452.2 540.15;" xml:space="preserve">
<style type="text/css">
	.st0{fill:#27E0D7;}
	.st1{fill:#27C1D7;}
	.st2{fill:#FFFFFF;}
</style>
<g>
	<g id="XMLID_1_">
		<g>
			<polygon class="st0" points="149.54,162.59 148.77,162.94 160.99,125.72 162.04,124.83 181.45,147.64 181.46,147.64 
				398.09,402.17 398.09,402.18 397.89,402.79 385.64,440.12 149.68,162.89 			"/>
			<path class="st1" d="M451.95,378.38l-13.04,39.73l-51.5,24.1l-1.77-2.09l12.25-37.33l0.51-0.24l53.19-24.91l0.11,0.13
				C451.77,377.98,451.85,378.18,451.95,378.38z"/>
			<polygon class="st1" points="55.66,175.02 56.27,173.16 161.32,123.98 162.04,124.83 160.99,125.72 148.77,162.94 43.44,212.27 
							"/>
			<polygon class="st1" points="321,49.22 308.16,88.32 234.65,122.74 214.51,99.07 			"/>
			<polygon class="st2" points="161.32,123.98 56.27,173.16 54.71,173.89 15.95,128.35 16.58,126.43 121.61,77.25 283.14,1.62 
				283.21,1.56 321.77,46.87 321,49.22 214.51,99.07 234.65,122.74 451.59,377.64 398.4,402.55 398.09,402.18 398.09,402.17 
				181.46,147.64 181.45,147.64 162.04,124.83 			"/>
			<polygon class="st0" points="56.27,173.16 55.66,175.02 54.71,173.89 			"/>
			<polygon class="st0" points="54.71,173.89 55.66,175.02 43.44,212.27 42.69,212.62 3.43,166.5 15.95,128.35 			"/>
		</g>
		<g>
		</g>
	</g>
</g>
</svg>
